<?xml version="1.0" encoding="UTF-8"?>
<svg xmlns="http://www.w3.org/2000/svg" width="2438" height="1322" viewBox="0 0 2438 1322">
  <defs>
    <style>
      .bg { fill: #ffffff; }
      .grid { stroke: #c7c7c7; stroke-width: 2; }
      .frame { stroke: #8a8a8a; stroke-width: 4; fill: none; }
      .axis { stroke: #1f1f1f; stroke-width: 5; fill: none; }
      .tick { stroke: #1f1f1f; stroke-width: 4; }
      .line { stroke: #222222; stroke-width: 6; fill: none; }
      .point { stroke: #111111; stroke-width: 6; stroke-linecap: round; }
      .tick-label { font-family: "Times New Roman", "David Libre", serif; font-size: 54px; fill: #111111; }
      .axis-label { font-family: "Times New Roman", "David Libre", serif; font-size: 70px; fill: #111111; }
    </style>
  </defs>

  <rect class="bg" x="0" y="0" width="2438" height="1322"/>

  <g id="plot-area">
    <rect class="frame" x="220" y="140" width="1920" height="970"/>

    <line class="grid" x1="700" y1="140" x2="700" y2="1110"/>
    <line class="grid" x1="1180" y1="140" x2="1180" y2="1110"/>
    <line class="grid" x1="1660" y1="140" x2="1660" y2="1110"/>
    <line class="grid" x1="2140" y1="140" x2="2140" y2="1110"/>

    <line class="grid" x1="220" y1="867.5" x2="2140" y2="867.5"/>
    <line class="grid" x1="220" y1="625" x2="2140" y2="625"/>
    <line class="grid" x1="220" y1="382.5" x2="2140" y2="382.5"/>
    <line class="grid" x1="220" y1="140" x2="2140" y2="140"/>

    <line class="axis" x1="220" y1="1110" x2="2218" y2="1110"/>
    <line class="axis" x1="220" y1="1110" x2="220" y2="70"/>
    <polygon points="2218,1098 2278,1110 2218,1122" fill="#1f1f1f"/>
    <polygon points="208,70 220,10 232,70" fill="#1f1f1f"/>

    <line class="tick" x1="220" y1="1110" x2="220" y2="1142"/>
    <line class="tick" x1="700" y1="1110" x2="700" y2="1142"/>
    <line class="tick" x1="1180" y1="1110" x2="1180" y2="1142"/>
    <line class="tick" x1="1660" y1="1110" x2="1660" y2="1142"/>
    <line class="tick" x1="2140" y1="1110" x2="2140" y2="1142"/>

    <line class="tick" x1="220" y1="1110" x2="186" y2="1110"/>
    <line class="tick" x1="220" y1="867.5" x2="186" y2="867.5"/>
    <line class="tick" x1="220" y1="625" x2="186" y2="625"/>
    <line class="tick" x1="220" y1="382.5" x2="186" y2="382.5"/>
    <line class="tick" x1="220" y1="140" x2="186" y2="140"/>

    <text class="tick-label" x="220" y="1218" text-anchor="middle">0</text>
    <text class="tick-label" x="700" y="1218" text-anchor="middle">0.5</text>
    <text class="tick-label" x="1180" y="1218" text-anchor="middle">1.0</text>
    <text class="tick-label" x="1660" y="1218" text-anchor="middle">1.5</text>
    <text class="tick-label" x="2140" y="1218" text-anchor="middle">2.0</text>

    <text class="tick-label" x="150" y="1128" text-anchor="end">0</text>
    <text class="tick-label" x="150" y="885.5" text-anchor="end">9</text>
    <text class="tick-label" x="150" y="643" text-anchor="end">18</text>
    <text class="tick-label" x="150" y="400.5" text-anchor="end">27</text>
    <text class="tick-label" x="150" y="156" text-anchor="end">36</text>

    <text class="axis-label" x="1180" y="1290" text-anchor="middle">
      I<tspan baseline-shift="sub" font-size="48">2</tspan> (A)
    </text>
    <text class="axis-label" x="70" y="625" text-anchor="middle" transform="rotate(-90 70 625)">
      V<tspan baseline-shift="sub" font-size="48">1</tspan> (V)
    </text>

    <polyline class="line" points="220,1110 700,867.5 1180,625 1660,382.5 2140,140"/>

    <g class="point">
      <line x1="700" y1="849.5" x2="700" y2="885.5"/>
      <line x1="682" y1="867.5" x2="718" y2="867.5"/>
    </g>
    <g class="point">
      <line x1="1180" y1="607" x2="1180" y2="643"/>
      <line x1="1162" y1="625" x2="1198" y2="625"/>
    </g>
    <g class="point">
      <line x1="1660" y1="364.5" x2="1660" y2="400.5"/>
      <line x1="1642" y1="382.5" x2="1678" y2="382.5"/>
    </g>
    <g class="point">
      <line x1="2140" y1="122" x2="2140" y2="158"/>
      <line x1="2122" y1="140" x2="2158" y2="140"/>
    </g>
  </g>
</svg>
